<svg id="Group_6" data-name="Group 6" xmlns="http://www.w3.org/2000/svg" width="233.449" height="29.501" viewBox="0 0 233.449 29.501">
  <g id="Group_4" data-name="Group 4" transform="translate(52.69 2.433)">
    <path id="Path_3" data-name="Path 3" d="M591.272,4905.368h-6.556l-3.689-15.688h-.273l-4.417,15.688H570.1l-4.553-15.688h-.273l-3.552,15.688h-6.557l6.01-22.988h8.469l3.324,12.819h.365l3.324-12.819h8.515Z" transform="translate(-555.164 -4881.903)" fill="#013cac"/>
    <path id="Path_4" data-name="Path 4" d="M586.873,4902.609q-2.436-3.237-2.436-8.671,0-5.475,2.5-8.713a8.263,8.263,0,0,1,6.921-3.236,7.476,7.476,0,0,1,4.69,1.281,7.78,7.78,0,0,1,2.276,2.587h.365v-3.391h7.149v22.989h-7.149v-3.694h-.365a8.466,8.466,0,0,1-2.345,2.739,7.316,7.316,0,0,1-4.713,1.346A8.126,8.126,0,0,1,586.873,4902.609Zm13.182-4.128a9.39,9.39,0,0,0,0-9.127,3.937,3.937,0,0,0-3.6-1.934,3.988,3.988,0,0,0-3.665,1.892,8.5,8.5,0,0,0-1.161,4.54,8.822,8.822,0,0,0,1.161,4.63,4.376,4.376,0,0,0,7.262,0Z" transform="translate(-548.611 -4881.99)" fill="#013cac"/>
    <path id="Path_5" data-name="Path 5" d="M605.623,4882.38h6.647l5.282,16.166h.273l5.145-16.166h6.693l-7.785,22.988h-8.516Z" transform="translate(-543.868 -4881.903)" fill="#013cac"/>
    <path id="Path_6" data-name="Path 6" d="M629.642,4904.172a10.188,10.188,0,0,1-3.871-4.389,14.266,14.266,0,0,1,0-11.689,10.312,10.312,0,0,1,3.871-4.41,11.78,11.78,0,0,1,6.534-1.7,10.836,10.836,0,0,1,8.1,3.062q3,3.064,3,8.887v1.869H631.349v.349a4.152,4.152,0,0,0,1.3,3.063,4.5,4.5,0,0,0,3.3,1.283,4.93,4.93,0,0,0,2.641-.674,3.713,3.713,0,0,0,1.548-1.8H647.1a10.251,10.251,0,0,1-3.756,5.629,11.539,11.539,0,0,1-7.262,2.194A11.713,11.713,0,0,1,629.642,4904.172Zm10.859-12.711a4.678,4.678,0,0,0-1.253-3.475,4.5,4.5,0,0,0-3.209-1.131,4.376,4.376,0,0,0-3.256,1.218,4.746,4.746,0,0,0-1.253,3.388Z" transform="translate(-539.638 -4881.99)" fill="#013cac"/>
    <path id="Path_7" data-name="Path 7" d="M644.774,4882.466h7.1v3.347h.364a6.646,6.646,0,0,1,2.527-2.717,7.807,7.807,0,0,1,4.258-1.107q4.735,0,6.556,2.845a11.578,11.578,0,0,1,1.821,6.367v14.254h-7.1v-13.08a5.537,5.537,0,0,0-1.046-3.564,3.739,3.739,0,0,0-3.1-1.3,3.814,3.814,0,0,0-3.233,1.369,5.592,5.592,0,0,0-1.047,3.5v13.08h-7.1Z" transform="translate(-535.103 -4881.99)" fill="#013cac"/>
  </g>
  <path id="Path_8" data-name="Path 8" d="M556.564,4895l-5.026-15H541.3l4.862,14.508H536.95L532.088,4880H521.85l4.861,14.5h-9.573l-5.026,15H522.35l4.861-14.5h9.226l-4.862,14.5h10.238l4.862-14.5Z" transform="translate(-512.112 -4880.002)" fill="#013cac"/>
  <g id="Group_5" data-name="Group 5" transform="translate(189.038 14.361)">
    <path id="Path_9" data-name="Path 9" d="M667.09,4892.244v1.511h1.948v.466H667.09v1.979h-.518v-4.417h2.713v.461Z" transform="translate(-666.572 -4891.725)" fill="#013cac"/>
    <path id="Path_10" data-name="Path 10" d="M672.038,4895.109h-2.122l-.422,1.09h-.572l1.773-4.417h.58l1.775,4.417h-.567Zm-.156-.459-.9-2.332-.9,2.332Z" transform="translate(-666.046 -4891.725)" fill="#013cac"/>
    <path id="Path_11" data-name="Path 11" d="M674.685,4896.266a1.936,1.936,0,0,1-1.521-.649,2.5,2.5,0,0,1,0-3.229,1.962,1.962,0,0,1,1.521-.652,2.219,2.219,0,0,1,.8.139,1.712,1.712,0,0,1,.594.357,1.9,1.9,0,0,1,.365.47,1.443,1.443,0,0,1,.168.506h-.539a1.061,1.061,0,0,0-.129-.317,1.619,1.619,0,0,0-.251-.317,1.1,1.1,0,0,0-.416-.251,1.789,1.789,0,0,0-.587-.092,1.487,1.487,0,0,0-1.174.505,2.016,2.016,0,0,0,0,2.525,1.488,1.488,0,0,0,1.174.5,1.514,1.514,0,0,0,.946-.288,1.013,1.013,0,0,0,.437-.618h.539a1.169,1.169,0,0,1-.175.462,1.988,1.988,0,0,1-.381.451,1.9,1.9,0,0,1-.595.348A2.2,2.2,0,0,1,674.685,4896.266Z" transform="translate(-665.229 -4891.735)" fill="#013cac"/>
    <path id="Path_12" data-name="Path 12" d="M676.738,4891.783h.524v4.417h-.524Z" transform="translate(-664.296 -4891.725)" fill="#013cac"/>
    <path id="Path_13" data-name="Path 13" d="M678.055,4891.783h.518v3.949H680.2v.467h-2.142Z" transform="translate(-664.001 -4891.725)" fill="#013cac"/>
    <path id="Path_14" data-name="Path 14" d="M680.618,4891.783h.524v4.417h-.524Z" transform="translate(-663.428 -4891.725)" fill="#013cac"/>
    <path id="Path_15" data-name="Path 15" d="M684.895,4892.245h-1.332v3.95h-.512v-3.95h-1.33v-.466h3.173Z" transform="translate(-663.181 -4891.728)" fill="#013cac"/>
    <path id="Path_16" data-name="Path 16" d="M686.846,4894.1v2.1h-.52v-2.084l-1.541-2.332h.584l1.213,1.877,1.221-1.877h.578Z" transform="translate(-662.495 -4891.725)" fill="#013cac"/>
    <path id="Path_17" data-name="Path 17" d="M671.044,4897.557v4.416h-.518v-3.657l-1.489,3.657h-.426l-1.483-3.657v3.657h-.523v-4.416h.712l1.507,3.757,1.513-3.757Z" transform="translate(-666.565 -4890.433)" fill="#013cac"/>
    <path id="Path_18" data-name="Path 18" d="M674.063,4900.881h-2.122l-.422,1.091h-.573l1.775-4.416h.58l1.773,4.416h-.565Zm-.155-.458-.9-2.332-.9,2.332Z" transform="translate(-665.593 -4890.433)" fill="#013cac"/>
    <path id="Path_19" data-name="Path 19" d="M678.574,4897.557v4.416h-.494l-2.667-3.581v3.581h-.524v-4.416h.495l2.674,3.572v-3.572Z" transform="translate(-664.71 -4890.433)" fill="#013cac"/>
    <path id="Path_20" data-name="Path 20" d="M681.694,4900.881h-2.122l-.422,1.091h-.572l1.773-4.416h.58l1.775,4.416h-.567Zm-.156-.458-.9-2.332-.9,2.332Z" transform="translate(-663.884 -4890.433)" fill="#013cac"/>
    <path id="Path_21" data-name="Path 21" d="M686.167,4899.725v2.255h-.349l-.107-.7a1.48,1.48,0,0,1-.583.554,1.987,1.987,0,0,1-.9.177,1.863,1.863,0,0,1-1.487-.646,2.582,2.582,0,0,1,.006-3.211,1.863,1.863,0,0,1,1.464-.633,2.079,2.079,0,0,1,1.251.368,1.5,1.5,0,0,1,.609,1.039h-.5a1.116,1.116,0,0,0-.488-.687,1.515,1.515,0,0,0-.837-.236,1.449,1.449,0,0,0-1.151.488,1.894,1.894,0,0,0-.427,1.294,1.774,1.774,0,0,0,.45,1.261,1.609,1.609,0,0,0,2.177.118,1.338,1.338,0,0,0,.365-.985h-1.207v-.452Z" transform="translate(-663.077 -4890.441)" fill="#013cac"/>
    <path id="Path_22" data-name="Path 22" d="M686.706,4898.016v1.513h1.961v.465h-1.961v1.513h2.208v.466h-2.733v-4.416h2.733v.459Z" transform="translate(-662.182 -4890.433)" fill="#013cac"/>
    <path id="Path_23" data-name="Path 23" d="M693.655,4897.557v4.416h-.518v-3.657l-1.489,3.657h-.425l-1.483-3.657v3.657h-.524v-4.416h.714l1.505,3.757,1.513-3.757Z" transform="translate(-661.503 -4890.433)" fill="#013cac"/>
    <path id="Path_24" data-name="Path 24" d="M694.213,4898.016v1.513h1.961v.465h-1.961v1.513h2.208v.466h-2.734v-4.416h2.734v.459Z" transform="translate(-660.502 -4890.433)" fill="#013cac"/>
    <path id="Path_25" data-name="Path 25" d="M700.335,4897.557v4.416h-.494l-2.668-3.581v3.581h-.523v-4.416h.494l2.673,3.572v-3.572Z" transform="translate(-659.839 -4890.433)" fill="#013cac"/>
    <path id="Path_26" data-name="Path 26" d="M703.44,4898.016h-1.33v3.951H701.6v-3.951h-1.332v-.465h3.174Z" transform="translate(-659.029 -4890.434)" fill="#013cac"/>
  </g>
</svg>
