<svg xmlns="http://www.w3.org/2000/svg" width="181.088" height="28.879" viewBox="0 0 181.088 28.879">
  <g id="Group_69" data-name="Group 69" transform="translate(-1004.986 -4880.002)">
    <g id="Group_68" data-name="Group 68" transform="translate(1004.986 4880.002)">
      <g id="Group_67" data-name="Group 67" transform="translate(51.578 2.382)">
        <g id="Group_66" data-name="Group 66">
          <path id="Path_56" data-name="Path 56" d="M1083.384,4904.883h-6.418l-3.611-15.357h-.267l-4.324,15.357h-6.106l-4.457-15.357h-.267l-3.477,15.357h-6.419l5.884-22.5h8.291l3.254,12.548h.357l3.254-12.548h8.335Z" transform="translate(-1048.038 -4881.913)" fill="#fff"/>
          <path id="Path_57" data-name="Path 57" d="M1079.7,4902.174a13.784,13.784,0,0,1-2.384-8.488q0-5.358,2.451-8.529a8.089,8.089,0,0,1,6.775-3.167,7.323,7.323,0,0,1,4.591,1.253,7.63,7.63,0,0,1,2.228,2.532h.357v-3.318h7v22.5h-7v-3.616h-.357a8.278,8.278,0,0,1-2.3,2.681,7.157,7.157,0,0,1-4.614,1.318A7.955,7.955,0,0,1,1079.7,4902.174Zm12.9-4.041a9.194,9.194,0,0,0,0-8.935,3.854,3.854,0,0,0-3.521-1.893,3.9,3.9,0,0,0-3.588,1.852,8.326,8.326,0,0,0-1.137,4.445,8.635,8.635,0,0,0,1.137,4.532,4.284,4.284,0,0,0,7.109,0Z" transform="translate(-1042.241 -4881.99)" fill="#fff"/>
          <path id="Path_58" data-name="Path 58" d="M1098.5,4882.38H1105l5.171,15.825h.267l5.037-15.825h6.552l-7.622,22.5h-8.335Z" transform="translate(-1038.045 -4881.913)" fill="#fff"/>
          <path id="Path_59" data-name="Path 59" d="M1122.408,4903.7a9.976,9.976,0,0,1-3.789-4.3,13.964,13.964,0,0,1,0-11.442,10.1,10.1,0,0,1,3.789-4.317,11.531,11.531,0,0,1,6.4-1.659,10.607,10.607,0,0,1,7.935,3q2.94,3,2.941,8.7v1.83h-15.6v.341a4.064,4.064,0,0,0,1.27,3,4.406,4.406,0,0,0,3.231,1.256,4.829,4.829,0,0,0,2.585-.661,3.635,3.635,0,0,0,1.516-1.766h6.819a10.033,10.033,0,0,1-3.677,5.51,11.3,11.3,0,0,1-7.109,2.148A11.463,11.463,0,0,1,1122.408,4903.7Zm10.63-12.443a4.585,4.585,0,0,0-1.227-3.4,4.406,4.406,0,0,0-3.141-1.107,4.285,4.285,0,0,0-3.187,1.192,4.647,4.647,0,0,0-1.227,3.316Z" transform="translate(-1034.303 -4881.99)" fill="#fff"/>
          <path id="Path_60" data-name="Path 60" d="M1137.648,4882.457h6.955v3.275h.356a6.516,6.516,0,0,1,2.474-2.659,7.651,7.651,0,0,1,4.168-1.083q4.633,0,6.418,2.785a11.335,11.335,0,0,1,1.783,6.232v13.953h-6.954v-12.8a5.415,5.415,0,0,0-1.025-3.489,3.656,3.656,0,0,0-3.031-1.277,3.733,3.733,0,0,0-3.164,1.341,5.473,5.473,0,0,0-1.024,3.425v12.8h-6.955Z" transform="translate(-1030.291 -4881.99)" fill="#fff"/>
        </g>
      </g>
      <path id="Path_61" data-name="Path 61" d="M1048.5,4894.681l-4.92-14.68h-10.022l4.76,14.2H1029.3l-4.759-14.2h-10.022l4.759,14.2h-9.371l-4.92,14.68h10.022l4.759-14.2h9.031l-4.76,14.2h10.022l4.76-14.2Z" transform="translate(-1004.986 -4880.001)" fill="#fff"/>
    </g>
  </g>
</svg>
