<svg xmlns="http://www.w3.org/2000/svg" width="71.226" height="45.678" viewBox="0 0 71.226 45.678">
  <g id="Group_139" data-name="Group 139" opacity="0.3" style="mix-blend-mode: normal;isolation: isolate">
    <path id="Union_1" data-name="Union 1" d="M4.652,33.713C.225,28.057-.2,21.5.061,17.525Q.045,17.164.045,16.8a16.662,16.662,0,1,1,33.322,0A16.8,16.8,0,0,1,22.854,32.416q-.151.275-.306.51c-2.332,3.531,0,12.751,0,12.751S11.545,42.521,4.652,33.713Z" transform="translate(37.859 0)" fill="#fff"/>
    <path id="Union_2" data-name="Union 2" d="M4.652,33.713C.225,28.057-.2,21.5.061,17.525Q.045,17.164.045,16.8a16.662,16.662,0,1,1,33.322,0A16.8,16.8,0,0,1,22.854,32.416q-.151.275-.306.51c-2.332,3.531,0,12.751,0,12.751S11.545,42.521,4.652,33.713Z" transform="translate(0 0)" fill="#fff"/>
  </g>
</svg>